<?xml version="1.0" encoding="iso-8859-1"?>
<!-- Generator: Adobe Illustrator 19.0.0, SVG Export Plug-In . SVG Version: 6.00 Build 0)  -->
<svg version="1.1" id="Layer_1" xmlns="http://www.w3.org/2000/svg" xmlns:xlink="http://www.w3.org/1999/xlink" x="0px" y="0px"
	 viewBox="0 0 490 490" style="enable-background:new 0 0 490 490;" xml:space="preserve">
<g>
	<g>
		<path d="M245,0C109.9,0,0,109.9,0,245s109.9,245,245,245s245-109.9,245-245S380.1,0,245,0z M375.7,382.5l-3.8-20.9
			c-2.4-13.1-10.9-24.4-22.8-30.3l-45.9-22.6c-2.6-1.3-5.2-2.7-7.8-4.2l14.5,42.7l-20.2-1.6l-44.7,55l-44.7-54.9l-20.2,1.6
			l14.8-42.7l-9.2,4.7l-44.8,22.1c-12,5.9-20.5,17.2-22.8,30.3l-3.8,20.9C77.9,347.9,55.1,299.1,55.1,245
			c0-104.7,85.2-189.9,189.9-189.9S434.9,140.3,434.9,245C434.9,299.1,412.1,347.9,375.7,382.5z"/>
	</g>
</g>
<g>
	<g>
		<path d="M342.6,261.2c0,0-28.7-8.1-23.5-60.4c5.2-52.2-6.4-98.1-48.4-94.2c0,0-18.2-21.9-54.4-8.1c-12.4,4.7-45.8,16.7-44.1,89.1
			c1.7,72.4-25.7,72.8-25.7,72.8s14.1,20.6,62.1,20.1V294L245,400.6l36.4-106.3l-0.1-1v-13.2C281.3,280.1,322.9,281.4,342.6,261.2z"
			/>
	</g>
</g>
<g>
</g>
<g>
</g>
<g>
</g>
<g>
</g>
<g>
</g>
<g>
</g>
<g>
</g>
<g>
</g>
<g>
</g>
<g>
</g>
<g>
</g>
<g>
</g>
<g>
</g>
<g>
</g>
<g>
</g>
</svg>
