<?xml version="1.0" encoding="iso-8859-1"?>
<!-- Generator: Adobe Illustrator 19.0.0, SVG Export Plug-In . SVG Version: 6.00 Build 0)  -->
<svg version="1.1" id="Layer_1" xmlns="http://www.w3.org/2000/svg" xmlns:xlink="http://www.w3.org/1999/xlink" x="0px" y="0px"
	 viewBox="0 0 490.843 490.843" style="enable-background:new 0 0 490.843 490.843;" xml:space="preserve">
<g>
	<g>
		<path d="M337.17,193.943c-30.2-11.5-48.3-23.4-48.3-23.4l-23.3,73.6l-3.2,10l-10.4-29.6c24-33.4-1.8-35-6.3-35.1h-0.1
			c0,0,0,0-0.1,0c0,0,0,0-0.1,0h-0.1c-4.5,0-30.2,1.6-6.3,35.1l-10.4,29.6l-3.2-10l-23.3-73.6c0,0-18.1,11.8-48.3,23.4
			c-29.9,10.9-31.1,34.3-31.6,76.4c-0.1,8,6.4,14.5,14.3,14.5h102.8h6.4h108.9c8,0,14.4-6.5,14.3-14.5
			C368.47,228.243,367.17,204.843,337.17,193.943z"/>
	</g>
</g>
<g>
	<g>
		<path d="M302.47,82.543c1-2.7,1.7-5.5,2.2-8.2c8.6-51.5-16.8-53.3-16.8-53.3s-4.2-8.1-15.3-14.2c-7.4-4.4-17.8-7.8-31.4-6.6
			c-4.4,0.2-8.6,1.1-12.5,2.4c-5,1.7-9.6,4.2-13.8,7c-5.1,3.2-9.9,7.2-14.2,11.7c-6.7,6.9-12.7,15.7-15.3,26.8
			c-2.2,8.3-1.7,16.9,0.1,26.2c0.5,2.7,1.2,5.4,2.2,8.2c-5-0.3-10.9,2.6-5.3,22.5c4.1,14.5,7.9,18.6,10.8,18.9
			c2.7,17.3,16,39.3,38,47c9,3.2,18.9,3.2,27.8-0.1c21.6-7.8,35.4-29.7,38.1-47c2.9-0.2,6.7-4.3,10.8-18.9
			C313.47,85.043,307.57,82.143,302.47,82.543z"/>
	</g>
</g>
<g>
	<g>
		<path d="M451.57,406.943h-19.9v-39.4c0-12.3-10-22.3-22.3-22.3h-151.4v-35h-25.3v35H81.77c-12.3,0-22.3,10-22.3,22.3v39.4h-19.9
			c-12.4,0-22.4,10-22.4,22.4v39.1c0,12.4,10,22.4,22.4,22.4h65c12.4,0,22.4-10,22.4-22.4v-39.1c0-12.4-10-22.4-22.4-22.4h-19.8
			v-36.4h147.9v36.4h-19.7c-12.4,0-22.4,10-22.4,22.4v39.1c0,12.4,10,22.4,22.4,22.4h65c12.4,0,22.4-10,22.4-22.4v-39.1
			c0-12.4-10-22.4-22.4-22.4h-20.1v-36.4h148.3v36.4h-19.9c-12.4,0-22.4,10-22.4,22.4v39.1c0,12.4,10,22.4,22.4,22.4h65
			c12.4,0,22.4-10,22.4-22.4v-39.1C473.87,417.043,463.87,406.943,451.57,406.943z"/>
	</g>
</g>
<g>
</g>
<g>
</g>
<g>
</g>
<g>
</g>
<g>
</g>
<g>
</g>
<g>
</g>
<g>
</g>
<g>
</g>
<g>
</g>
<g>
</g>
<g>
</g>
<g>
</g>
<g>
</g>
<g>
</g>
</svg>
