<?xml version="1.0" encoding="iso-8859-1"?>
<!-- Generator: Adobe Illustrator 19.0.0, SVG Export Plug-In . SVG Version: 6.00 Build 0)  -->
<svg version="1.1" id="Layer_1" xmlns="http://www.w3.org/2000/svg" xmlns:xlink="http://www.w3.org/1999/xlink" x="0px" y="0px"
	 viewBox="0 0 489.4 489.4" style="enable-background:new 0 0 489.4 489.4;" xml:space="preserve">
<g>
	<g>
		<path d="M244.7,0C109.8,0,0,109.8,0,244.7s109.8,244.7,244.7,244.7s244.7-109.8,244.7-244.7S379.6,0,244.7,0z M394.7,358.8
			c-3.5-12.2-10.9-23.5-26.3-27.4c-38.3-9.7-69.5-31.7-69.5-31.7l-24.3,76.8L270,391l-0.1-0.2l-4,12.3l-12.8-36.3
			c31.5-43.9-6.4-43.5-8.5-43.4c-2.1-0.1-40-0.5-8.5,43.4l-12.8,36.3l-4-12.3l-0.1,0.2l-4.6-14.5l-24.3-76.8
			c0,0-31.1,21.9-69.5,31.7c-15.3,3.9-22.8,15.2-26.3,27.4c-24-31.7-38.4-71.2-38.4-114.1c0-104,84.6-188.6,188.6-188.6
			s188.6,84.6,188.6,188.6C433.3,287.6,418.9,327.1,394.7,358.8z"/>
	</g>
</g>
<g>
	<g>
		<path d="M315.9,196.3c1.2-3.4,2.1-6.8,2.7-10.2c10.6-63.9-20.8-66.2-20.8-66.2s-5.2-10-19-17.6c-9.2-5.5-22-9.7-38.9-8.2
			c-5.5,0.3-10.7,1.3-15.5,3c-6.2,2.1-11.9,5.2-17.1,8.7c-6.3,4-12.3,8.9-17.6,14.5c-8.3,8.5-15.8,19.5-19,33.3
			c-2.7,10.3-2.1,21,0.1,32.5c0.6,3.4,1.5,6.7,2.7,10.2c-6.3-0.6-13.7,3.1-6.7,27.8c5.1,18.1,9.9,23.2,13.5,23.4
			c3.3,21.5,19.8,48.8,47.1,58.4c11.2,3.9,23.4,3.9,34.5-0.1c26.8-9.7,43.9-36.9,47.2-58.3c3.6-0.3,8.3-5.4,13.5-23.4
			C329.6,199.4,322.2,195.8,315.9,196.3z"/>
	</g>
</g>
<g>
</g>
<g>
</g>
<g>
</g>
<g>
</g>
<g>
</g>
<g>
</g>
<g>
</g>
<g>
</g>
<g>
</g>
<g>
</g>
<g>
</g>
<g>
</g>
<g>
</g>
<g>
</g>
<g>
</g>
</svg>
